<svg xmlns="http://www.w3.org/2000/svg" xmlns:xlink="http://www.w3.org/1999/xlink" width="500" zoomAndPan="magnify" viewBox="0 0 375 374.999991" height="500" preserveAspectRatio="xMidYMid meet" version="1.0"><defs><g/><clipPath id="b4222a2570"><path d="M 61.8125 80 L 313.0625 80 L 313.0625 228 L 61.8125 228 Z M 61.8125 80 " clip-rule="nonzero"/></clipPath></defs><path fill="#d49a42" d="M 253.539062 100.378906 C 246.375 94.339844 240.980469 93.9375 235.910156 100.378906 C 241.867188 108.265625 252.894531 106.574219 257.484375 100.296875 Z M 253.539062 100.378906 " fill-opacity="1" fill-rule="evenodd"/><path fill="#d49a42" d="M 242.914062 109.390625 C 235.347656 103.839844 229.957031 103.839844 225.285156 110.597656 C 231.804688 118.085938 242.59375 115.589844 246.777344 108.988281 L 242.832031 109.3125 Z M 242.914062 109.390625 " fill-opacity="1" fill-rule="evenodd"/><path fill="#d49a42" d="M 235.1875 120.660156 C 226.332031 117.601562 221.183594 119.210938 218.765625 127.101562 C 227.21875 132.25 236.796875 126.695312 238.808594 119.132812 Z M 235.1875 120.660156 " fill-opacity="1" fill-rule="evenodd"/><path fill="#d49a42" d="M 231.402344 133.699219 C 222.226562 131.769531 217.320312 134.023438 215.871094 142.070312 C 224.882812 146.175781 233.738281 139.496094 234.785156 131.769531 Z M 231.402344 133.699219 " fill-opacity="1" fill-rule="evenodd"/><path fill="#d49a42" d="M 228.910156 149.796875 C 219.734375 147.867188 214.824219 150.121094 213.375 158.167969 C 222.390625 162.273438 231.242188 155.59375 232.289062 147.867188 Z M 228.910156 149.796875 " fill-opacity="1" fill-rule="evenodd"/><path fill="#d49a42" d="M 225.285156 164.769531 C 215.949219 165.492188 211.84375 169.035156 212.730469 177.164062 C 222.550781 178.613281 229.152344 169.679688 228.023438 161.953125 Z M 225.285156 164.769531 " fill-opacity="1" fill-rule="evenodd"/><path fill="#d49a42" d="M 192.6875 162.03125 C 201.625 164.769531 204.921875 169.035156 202.265625 176.84375 C 192.367188 176.117188 187.859375 166.054688 190.597656 158.730469 Z M 192.6875 162.03125 " fill-opacity="1" fill-rule="evenodd"/><path fill="#d49a42" d="M 195.425781 141.988281 C 203.957031 145.773438 206.695312 150.523438 203.070312 157.847656 C 193.332031 155.914062 190.113281 145.289062 193.734375 138.367188 L 195.34375 141.910156 Z M 195.425781 141.988281 " fill-opacity="1" fill-rule="evenodd"/><path fill="#d49a42" d="M 200.578125 122.351562 C 208.707031 126.9375 210.960938 131.929688 206.695312 138.929688 C 197.195312 136.035156 195.023438 125.167969 199.371094 118.648438 L 200.65625 122.351562 Z M 200.578125 122.351562 " fill-opacity="1" fill-rule="evenodd"/><path fill="#d49a42" d="M 208.546875 106.65625 C 215.707031 112.691406 216.996094 117.925781 211.523438 124.042969 C 202.75 119.453125 202.507812 108.347656 207.980469 102.792969 Z M 208.546875 106.65625 " fill-opacity="1" fill-rule="evenodd"/><path fill="#d49a42" d="M 221.585938 90.15625 C 226.414062 98.125 225.929688 103.597656 218.765625 107.539062 C 211.925781 100.378906 215.304688 89.832031 222.308594 86.292969 Z M 221.585938 90.15625 " fill-opacity="1" fill-rule="evenodd"/><path fill="#d49a42" d="M 239.292969 79.851562 C 241.0625 89.027344 238.730469 93.9375 230.679688 95.226562 C 226.734375 86.128906 233.496094 77.4375 241.304688 76.472656 Z M 239.292969 79.851562 " fill-opacity="1" fill-rule="evenodd"/><path fill="#d49a42" d="M 158 125.085938 C 160.574219 117.84375 157.835938 113.015625 149.949219 110.519531 L 151.398438 112.773438 C 149.867188 119.773438 152.121094 123.878906 158 125.085938 Z M 158 125.085938 " fill-opacity="1" fill-rule="evenodd"/><path fill="#d49a42" d="M 166.691406 133.457031 C 171.441406 127.503906 170.554688 122.027344 163.875 117.039062 L 164.519531 119.613281 C 160.816406 125.730469 161.539062 130.320312 166.691406 133.457031 Z M 166.691406 133.457031 " fill-opacity="1" fill-rule="evenodd"/><path fill="#d49a42" d="M 173.050781 146.09375 C 179.003906 141.265625 179.246094 135.710938 173.773438 129.515625 L 173.855469 132.171875 C 168.945312 137.320312 168.703125 141.988281 173.050781 146.175781 Z M 173.050781 146.09375 " fill-opacity="1" fill-rule="evenodd"/><path fill="#d49a42" d="M 176.027344 157.765625 C 182.949219 154.625 184.640625 149.316406 180.9375 141.910156 L 180.292969 144.484375 C 174.257812 148.269531 172.808594 152.695312 175.945312 157.765625 Z M 176.027344 157.765625 " fill-opacity="1" fill-rule="evenodd"/><path fill="#d49a42" d="M 178.683594 171.53125 C 186.007812 169.355469 188.34375 164.285156 185.765625 156.476562 L 184.800781 158.894531 C 178.28125 161.789062 176.269531 165.976562 178.683594 171.53125 Z M 178.683594 171.53125 " fill-opacity="1" fill-rule="evenodd"/><path fill="#d49a42" d="M 179.246094 185.613281 C 186.8125 184.246094 189.710938 179.578125 187.941406 171.449219 L 186.734375 173.785156 C 179.972656 175.957031 177.476562 179.902344 179.246094 185.613281 Z M 179.246094 185.613281 " fill-opacity="1" fill-rule="evenodd"/><path fill="#d49a42" d="M 171.441406 185.292969 C 163.792969 186.019531 159.769531 182.234375 159.285156 173.945312 L 161.058594 175.875 C 168.21875 176.117188 171.601562 179.257812 171.441406 185.292969 Z M 171.441406 185.292969 " fill-opacity="1" fill-rule="evenodd"/><path fill="#d49a42" d="M 170.875 172.09375 C 163.550781 174.1875 158.804688 171.207031 156.871094 163.160156 L 158.964844 164.6875 C 166.046875 163.640625 169.992188 166.054688 170.875 172.09375 Z M 170.875 172.09375 " fill-opacity="1" fill-rule="evenodd"/><path fill="#d49a42" d="M 169.507812 159.054688 C 162.425781 162.03125 157.433594 159.617188 154.539062 151.890625 L 156.789062 153.179688 C 163.632812 151.246094 167.898438 153.257812 169.507812 159.054688 Z M 169.507812 159.054688 " fill-opacity="1" fill-rule="evenodd"/><path fill="#d49a42" d="M 166.773438 148.429688 C 159.6875 151.40625 154.699219 148.992188 151.800781 141.265625 L 154.054688 142.554688 C 160.894531 140.621094 165.160156 142.632812 166.773438 148.429688 Z M 166.773438 148.429688 " fill-opacity="1" fill-rule="evenodd"/><path fill="#d49a42" d="M 162.183594 135.953125 C 156.628906 141.183594 151.074219 140.703125 145.601562 134.503906 L 148.179688 134.90625 C 153.972656 130.722656 158.5625 131.042969 162.101562 135.953125 Z M 162.183594 135.953125 " fill-opacity="1" fill-rule="evenodd"/><path fill="#d49a42" d="M 153.972656 128.144531 C 148.902344 133.859375 143.347656 133.941406 137.3125 128.308594 L 139.96875 128.46875 C 145.28125 123.71875 149.949219 123.636719 153.972656 128.144531 Z M 153.972656 128.144531 " fill-opacity="1" fill-rule="evenodd"/><path fill="#13472e" d="M 248.386719 115.671875 C 260.460938 136.515625 260.21875 162.355469 247.742188 182.960938 L 262.390625 186.660156 C 266.015625 179.335938 268.429688 171.691406 269.796875 163.882812 C 278.8125 164.929688 291.53125 162.433594 307.867188 156.316406 C 291.769531 155.03125 279.457031 151.890625 271.003906 146.820312 C 270.683594 137.804688 268.992188 128.789062 265.773438 120.175781 C 277.042969 115.1875 287.261719 106.816406 296.359375 94.984375 C 289.113281 99.8125 277.765625 103.113281 262.390625 104.804688 C 257.242188 110.921875 256.273438 111.566406 248.386719 115.671875 Z M 248.386719 115.671875 " fill-opacity="1" fill-rule="evenodd"/><path fill="#13472e" d="M 140.050781 197.527344 C 117.269531 174.347656 113.972656 138.289062 132 111.324219 C 150.109375 84.28125 184.640625 73.65625 214.742188 85.808594 C 219.167969 80.980469 222.710938 77.359375 225.367188 74.941406 C 218.363281 71.5625 211.203125 69.308594 203.796875 67.941406 C 203.875 56.832031 201.058594 44.195312 195.507812 30.03125 C 193.734375 48.460938 190.917969 60.617188 187.054688 66.652344 C 178.039062 66.894531 169.1875 68.585938 160.734375 71.722656 C 153.8125 56.992188 145.523438 46.851562 135.945312 41.21875 C 144.957031 62.386719 148.339844 74.941406 145.925781 78.886719 C 138.679688 83.3125 132 88.949219 126.285156 95.707031 C 114.132812 87.5 101.898438 83.070312 89.421875 82.429688 C 104.070312 92.167969 113.164062 101.34375 116.546875 109.714844 C 112.28125 117.441406 109.382812 125.730469 107.773438 134.261719 C 92.640625 133.539062 80.164062 135.632812 70.265625 140.703125 C 87.25 142.390625 99.320312 145.691406 106.40625 150.523438 C 106.484375 158.972656 107.855469 167.425781 110.589844 175.554688 C 99.886719 181.511719 90.46875 190.121094 82.175781 201.308594 C 100.046875 193.421875 111.71875 189.800781 117.109375 190.363281 C 119.121094 193.984375 121.535156 197.527344 124.113281 200.828125 Z M 140.050781 197.527344 " fill-opacity="1" fill-rule="evenodd"/><g clip-path="url(#b4222a2570)"><path fill="#d49a42" d="M 204.84375 190.605469 C 195.988281 192.054688 187.054688 194.148438 177.636719 196.320312 C 176.832031 153.015625 167.816406 129.433594 151.15625 122.914062 C 148.582031 115.347656 143.671875 112.449219 136.589844 114.222656 C 139.082031 120.5 143.671875 123.71875 150.351562 124.042969 C 172.96875 131.445312 174.175781 185.613281 173.128906 197.367188 C 143.589844 204.449219 109.464844 212.660156 61.894531 210.890625 C 183.03125 255.15625 191.480469 193.179688 313.261719 217.167969 C 271.246094 189.15625 241.304688 185.453125 210.636719 189.640625 C 208.949219 137.484375 219.007812 105.609375 240.820312 94.097656 C 249.03125 94.339844 255.230469 90.074219 259.414062 81.382812 C 250.078125 79.289062 243.636719 83.070312 240.015625 92.730469 C 212.410156 106.496094 205.96875 137.722656 205.003906 190.523438 Z M 204.84375 190.605469 " fill-opacity="1" fill-rule="evenodd"/></g><path fill="#d49a42" d="M 293.542969 233.828125 C 232.128906 195.597656 209.269531 237.773438 132.160156 235.839844 C 208.304688 263.046875 225.285156 219.742188 293.542969 233.828125 Z M 293.542969 233.828125 " fill-opacity="1" fill-rule="evenodd"/><path stroke-linecap="butt" transform="matrix(0.75, 0, 0, 0.75, 27.998913, 251.148089)" fill="none" stroke-linejoin="miter" d="M 30.38166 10.115049 C 33.22541 10.115049 36.313952 10.542132 39.642077 11.396299 C 39.642077 11.396299 39.975411 11.479632 40.636869 11.651507 L 40.136869 21.057758 L 35.095202 21.057758 L 33.308744 16.099424 C 33.074369 15.703591 32.60041 15.349424 31.892077 15.036924 C 31.183743 14.724424 29.918118 14.562965 28.105618 14.562965 C 26.089993 14.562965 24.376451 15.177549 22.954576 16.401507 C 21.53791 17.620257 20.464993 19.271299 19.741034 21.349424 C 19.011868 23.427549 18.652493 25.74005 18.652493 28.292133 C 18.652493 31.062967 19.037909 33.693175 19.813951 36.187967 C 20.584784 38.67755 21.720201 40.693176 23.220201 42.229634 C 24.730618 43.766092 26.53791 44.531717 28.652493 44.531717 C 30.13166 44.531717 31.386869 44.391092 32.41291 44.120259 C 33.433744 43.833801 34.110827 43.333801 34.44416 42.604634 L 36.428536 37.745259 L 40.636869 37.745259 L 40.636869 46.365051 C 40.407702 46.365051 39.652494 46.547343 38.360827 46.911926 C 36.610827 47.437968 34.949369 47.865051 33.376452 48.193176 C 31.813952 48.526509 30.043118 48.687968 28.058743 48.687968 C 24.293118 48.687968 20.970201 47.948384 18.095201 46.464009 C 15.225409 44.979634 13.001451 42.859842 11.433742 40.104634 C 9.866034 37.344217 9.084784 34.135883 9.084784 30.464008 C 9.084784 26.667133 10.022284 23.219216 11.902492 20.115049 C 13.787909 17.010882 16.355618 14.568174 19.605618 12.786924 C 22.860826 11.005674 26.454577 10.115049 30.38166 10.115049 Z M 48.44937 44.083801 L 48.44937 28.193175 L 45.183744 25.859841 L 45.183744 22.833799 L 54.147287 20.161924 L 55.88687 20.609841 L 55.88687 25.312966 C 56.110828 24.422341 56.610829 23.578591 57.38687 22.786924 C 58.16812 21.995258 59.053537 21.365049 60.048329 20.891091 C 61.037912 20.406716 61.959787 20.161924 62.813954 20.161924 C 64.168121 20.161924 65.043121 20.266091 65.438954 20.464008 L 65.438954 28.0838 C 65.074371 27.719216 64.454579 27.443175 63.574371 27.250466 C 62.704579 27.047341 61.954579 26.948383 61.329579 26.948383 C 60.407704 26.948383 59.54312 27.042133 58.725412 27.224425 C 57.923329 27.401508 57.35562 27.609841 57.022287 27.844216 L 57.022287 43.891092 L 62.668121 44.734842 L 62.668121 48.000468 L 45.485828 48.000468 L 45.485828 44.734842 Z M 83.116039 20.115049 C 87.636872 20.115049 91.089997 21.286924 93.464998 23.635883 C 95.845206 25.979633 97.032706 29.328591 97.032706 33.682758 C 97.032706 36.687967 96.418123 39.318175 95.194164 41.568176 C 93.975414 43.807759 92.267081 45.542134 90.069164 46.766093 C 87.876456 47.984843 85.32958 48.594218 82.42333 48.594218 C 77.871247 48.594218 74.36083 47.349426 71.89208 44.854634 C 69.433746 42.365051 68.241038 38.891092 68.313954 34.432758 C 68.412913 30.005675 69.777496 26.547341 72.412913 24.057758 C 75.058746 21.557758 78.626455 20.245258 83.116039 20.115049 Z M 82.92333 23.682758 C 80.938955 23.682758 79.522288 24.599424 78.678538 26.437966 C 77.839997 28.2713 77.418122 30.698383 77.418122 33.729633 C 77.418122 36.7713 77.82958 39.411925 78.652497 41.661926 C 79.480622 43.906717 80.839997 45.026509 82.714997 45.026509 C 84.730622 45.026509 86.11083 44.021301 86.850414 42.016092 C 87.600414 40.000467 87.975414 37.370259 87.975414 34.130675 C 87.975414 31.089008 87.595206 28.594216 86.82958 26.630675 C 86.069164 24.667133 84.76708 23.682758 82.92333 23.682758 Z M 118.616041 20.161924 C 122.282708 20.161924 125.032708 21.354633 126.860833 23.729633 C 128.699375 26.109841 129.62125 29.3963 129.62125 33.5838 C 129.62125 36.328592 128.944167 38.844217 127.59 41.141092 C 126.235833 43.432759 124.397291 45.245259 122.084791 46.583801 C 119.772291 47.922343 117.230624 48.594218 114.454582 48.594218 C 114.058749 48.594218 113.517082 48.542134 112.824374 48.448384 C 112.131665 48.349426 111.735832 48.302551 111.636874 48.302551 L 111.938957 52.255676 L 111.938957 56.318177 L 117.089999 57.010885 L 117.089999 60.380677 L 100.246248 60.380677 L 100.246248 57.010885 L 103.418123 56.318177 L 103.418123 28.193175 L 100.152498 25.859841 L 100.152498 22.833799 L 109.110832 20.161924 L 110.793124 20.609841 L 110.793124 23.729633 C 111.293124 22.771299 112.355624 21.937966 113.985832 21.229633 C 115.621249 20.516091 117.162916 20.161924 118.616041 20.161924 Z M 115.157707 24.578591 C 114.558749 24.578591 113.938957 24.760883 113.293124 25.120258 C 112.652499 25.484841 112.199374 25.86505 111.938957 26.255675 L 111.938957 42.656717 C 112.168124 43.214009 112.704582 43.630676 113.558749 43.911926 C 114.423332 44.193176 115.251457 44.333801 116.053541 44.333801 C 117.730624 44.333801 119.001458 43.411926 119.871249 41.568176 C 120.751458 39.714009 121.188958 37.516092 121.188958 34.974425 C 121.188958 31.969217 120.688958 29.484841 119.678541 27.526508 C 118.678541 25.562966 117.173332 24.578591 115.157707 24.578591 Z M 148.178543 43.583801 L 148.178543 15.458799 L 144.017084 14.615049 L 144.017084 10.45359 L 152.68896 10.45359 C 153.444168 10.45359 154.121252 10.437965 154.709793 10.406715 C 155.303543 10.370257 155.819168 10.339007 156.256668 10.307757 C 158.168127 10.177549 159.735835 10.115049 160.959794 10.115049 C 165.715002 10.115049 169.329586 10.964007 171.808753 12.667132 C 174.282711 14.35984 175.517086 17.172341 175.517086 21.104633 C 175.517086 23.677549 174.892086 25.891091 173.63167 27.745258 C 172.381669 29.589008 170.657711 31.000467 168.454586 31.979633 C 166.261877 32.953592 163.767086 33.443175 160.959794 33.443175 C 159.043127 33.443175 157.621252 33.422342 156.704585 33.391092 L 156.704585 43.583801 L 162.590002 44.625467 L 162.590002 48.000468 L 143.923334 48.000468 L 143.923334 44.625467 Z M 156.704585 29.073383 C 157.459793 29.245258 158.808752 29.328591 160.75146 29.328591 C 162.90771 29.328591 164.496252 28.547341 165.517086 26.984841 C 166.543127 25.411925 167.053544 23.302549 167.053544 20.661924 C 167.053544 18.547341 166.392086 16.917132 165.069169 15.760882 C 163.746252 14.599424 162.03271 14.021299 159.918127 14.021299 C 159.256669 14.021299 158.605627 14.062965 157.959793 14.151507 C 157.31396 14.23484 156.897293 14.307757 156.704585 14.370257 Z M 180.902503 44.083801 L 180.902503 28.193175 L 177.636878 25.859841 L 177.636878 22.833799 L 186.60042 20.161924 L 188.340004 20.609841 L 188.340004 25.312966 C 188.563962 24.422341 189.063962 23.578591 189.840004 22.786924 C 190.621254 21.995258 191.506671 21.365049 192.501462 20.891091 C 193.491046 20.406716 194.412921 20.161924 195.267088 20.161924 C 196.621254 20.161924 197.496254 20.266091 197.892088 20.464008 L 197.892088 28.0838 C 197.532713 27.719216 196.907713 27.443175 196.032713 27.250466 C 195.162921 27.047341 194.412921 26.948383 193.782713 26.948383 C 192.860837 26.948383 191.996254 27.042133 191.183754 27.224425 C 190.376462 27.401508 189.808754 27.609841 189.475421 27.844216 L 189.475421 43.891092 L 195.126463 44.734842 L 195.126463 48.000468 L 177.938961 48.000468 L 177.938961 44.734842 Z M 215.569172 20.115049 C 220.090006 20.115049 223.543131 21.286924 225.918131 23.635883 C 228.29834 25.979633 229.48584 29.328591 229.48584 33.682758 C 229.48584 36.687967 228.876465 39.318175 227.647298 41.568176 C 226.433756 43.807759 224.725423 45.542134 222.522298 46.766093 C 220.329589 47.984843 217.782714 48.594218 214.881672 48.594218 C 210.32438 48.594218 206.813963 47.349426 204.345213 44.854634 C 201.88688 42.365051 200.694171 38.891092 200.767088 34.432758 C 200.866046 30.005675 202.23063 26.547341 204.866047 24.057758 C 207.51188 21.557758 211.079589 20.245258 215.569172 20.115049 Z M 215.376464 23.682758 C 213.392089 23.682758 211.98063 24.599424 211.131672 26.437966 C 210.29313 28.2713 209.876464 30.698383 209.876464 33.729633 C 209.876464 36.7713 210.282714 39.411925 211.10563 41.661926 C 211.938964 43.906717 213.29313 45.026509 215.168131 45.026509 C 217.183756 45.026509 218.563964 44.021301 219.303548 42.016092 C 220.053548 40.000467 220.428548 37.370259 220.428548 34.130675 C 220.428548 31.089008 220.048339 28.594216 219.282714 26.630675 C 218.522297 24.667133 217.220214 23.682758 215.376464 23.682758 Z M 260.188967 9.219215 L 260.188967 44.734842 L 263.610842 44.734842 L 263.610842 47.312968 C 262.949384 47.672343 261.99105 47.990051 260.730634 48.266093 C 259.480633 48.547343 258.001467 48.687968 256.282717 48.687968 C 254.298341 48.687968 252.9598 48.115051 252.267091 46.958801 C 251.371258 47.589009 250.225425 48.031718 248.819174 48.292134 C 247.418133 48.557759 245.975424 48.687968 244.491049 48.687968 C 242.209799 48.687968 240.194174 48.078593 238.444174 46.865051 C 236.694174 45.635884 235.350424 43.979634 234.407715 41.880676 C 233.465007 39.786925 232.991048 37.469217 232.991048 34.92755 C 232.991048 32.0838 233.699382 29.536925 235.121257 27.297341 C 236.54834 25.047341 238.459799 23.297341 240.850424 22.052549 C 243.246257 20.792133 245.876466 20.161924 248.746258 20.161924 C 249.8348 20.161924 250.798341 20.229633 251.626466 20.354633 L 251.626466 14.51609 L 246.267091 13.125465 L 246.267091 9.76609 L 258.605633 8.57859 Z M 247.949383 23.427549 C 246.668133 23.427549 245.563966 23.901508 244.636883 24.844216 C 243.709799 25.786925 243.022299 27.000466 242.579591 28.484841 C 242.136882 29.964008 241.918132 31.500467 241.918132 33.089008 C 241.850424 35.073383 242.048341 36.953592 242.506674 38.734842 C 242.970216 40.521301 243.683757 41.974426 244.662924 43.104634 C 245.636883 44.224426 246.850424 44.781717 248.303549 44.781717 C 249.688966 44.781717 250.798341 44.620259 251.626466 44.286926 L 251.626466 24.276508 C 250.761883 23.708799 249.537925 23.427549 247.949383 23.427549 Z M 265.918134 25.312966 L 265.918134 22.339008 L 275.131676 20.161924 L 276.428551 20.562966 L 276.428551 37.3963 C 276.428551 39.6463 276.68376 41.297342 277.188968 42.354634 C 277.704593 43.406717 278.688968 43.937967 280.142093 43.937967 C 280.928552 43.937967 281.735843 43.833801 282.55876 43.620259 C 283.386885 43.406717 284.017093 43.099426 284.444177 42.703592 L 284.444177 27.3963 L 281.37126 25.714008 L 281.37126 22.339008 L 291.480636 20.161924 L 292.824386 20.562966 L 292.824386 44.734842 L 295.595219 44.734842 L 295.595219 47.312968 C 295.027511 47.703593 294.006677 48.031718 292.522302 48.292134 C 291.037927 48.557759 289.787927 48.687968 288.761885 48.687968 C 287.735844 48.687968 286.90251 48.469218 286.256677 48.026509 C 285.616052 47.578593 285.293135 46.911926 285.293135 46.016093 L 285.293135 45.073384 C 284.501468 46.031718 283.298343 46.875468 281.673343 47.599426 C 280.053552 48.328593 278.605635 48.687968 277.324385 48.687968 C 273.918134 48.687968 271.548343 47.880676 270.209801 46.271301 C 268.876467 44.651509 268.204592 42.073384 268.204592 38.542134 L 268.204592 26.995258 Z M 314.50147 20.161924 C 315.886887 20.161924 317.402512 20.271299 319.037929 20.490049 C 320.673346 20.698383 321.855638 21.000466 322.579596 21.396299 L 322.579596 29.073383 L 318.168137 29.073383 L 316.241054 24.516091 C 315.584804 24.120258 314.522304 23.922341 313.06397 23.922341 C 311.183762 23.922341 309.787928 24.859841 308.87647 26.729633 C 307.975428 28.594216 307.522303 30.92755 307.522303 33.729633 C 307.522303 36.80255 308.199387 39.266092 309.558762 41.120259 C 310.912929 42.964009 312.855637 43.891092 315.397304 43.891092 C 316.621262 43.891092 317.876471 43.740051 319.157721 43.443176 C 320.449387 43.141092 321.454596 42.729634 322.178554 42.208801 L 323.475429 45.229634 C 322.183763 46.349426 320.574388 47.208801 318.636887 47.807759 C 316.709804 48.396301 314.527512 48.687968 312.084804 48.687968 C 309.340012 48.687968 306.954595 48.130676 304.923345 47.010884 C 302.892095 45.885884 301.340011 44.302551 300.267095 42.255676 C 299.199386 40.2088 298.662928 37.828592 298.662928 35.120258 C 298.662928 32.1463 299.324386 29.531716 300.65772 27.2713 C 301.996261 25.010883 303.871261 23.260883 306.277512 22.026508 C 308.68897 20.781716 311.428554 20.161924 314.50147 20.161924 Z M 336.590014 20.964008 L 344.860847 20.964008 L 344.860847 25.266091 L 336.938972 25.266091 L 336.938972 34.578592 C 336.938972 36.755675 336.985847 38.437967 337.084805 39.630675 C 337.183764 40.818176 337.44418 41.792134 337.871264 42.557759 C 338.303555 43.318176 338.980639 43.693176 339.902514 43.693176 C 340.496264 43.693176 341.246264 43.604634 342.152514 43.427551 C 343.063972 43.245259 343.715014 43.052551 344.110847 42.849426 L 345.402514 45.568176 C 344.412931 46.562968 342.996264 47.312968 341.157722 47.828593 C 339.329597 48.339009 337.47543 48.594218 335.595222 48.594218 C 333.782722 48.594218 332.371263 48.281718 331.366055 47.661926 C 330.355638 47.031718 329.642096 46.073384 329.22543 44.781717 C 328.813971 43.495259 328.605638 41.792134 328.605638 39.682759 L 328.605638 25.266091 L 324.944179 25.266091 L 324.944179 22.547341 C 327.053555 22.214008 328.605638 21.552549 329.60043 20.562966 C 330.19418 19.964008 330.699388 19.208799 331.110847 18.286924 C 331.522305 17.359841 331.996263 16.089007 332.527513 14.469215 L 336.590014 14.469215 Z M 356.19939 6.005673 C 357.777515 6.005673 358.996265 6.406715 359.850432 7.214007 C 360.715015 8.021298 361.147307 9.130673 361.147307 10.552549 C 361.147307 12.135882 360.558765 13.437965 359.381682 14.443174 C 358.209807 15.453591 356.834807 15.953591 355.256681 15.953591 C 353.871265 15.953591 352.69939 15.526507 351.735848 14.67234 C 350.777514 13.812965 350.298348 12.719215 350.298348 11.396299 C 350.298348 10.406715 350.590014 9.500465 351.16814 8.677548 C 351.751473 7.844215 352.491056 7.193173 353.392098 6.719215 C 354.303556 6.240048 355.241056 6.005673 356.19939 6.005673 Z M 360.308765 20.755674 L 360.308765 44.083801 L 363.767099 44.734842 L 363.767099 48.000468 L 348.522306 48.000468 L 348.522306 44.734842 L 351.735848 44.031717 L 351.735848 28.979633 L 348.668139 25.510883 L 348.668139 23.234841 L 358.23064 20.161924 Z M 381.29835 20.115049 C 385.819183 20.115049 389.272309 21.286924 391.647309 23.635883 C 394.027517 25.979633 395.215017 29.328591 395.215017 33.682758 C 395.215017 36.687967 394.605642 39.318175 393.376476 41.568176 C 392.162934 43.807759 390.4546 45.542134 388.251475 46.766093 C 386.058767 47.984843 383.511892 48.594218 380.61085 48.594218 C 376.053558 48.594218 372.543141 47.349426 370.074391 44.854634 C 367.616057 42.365051 366.423349 38.891092 366.496266 34.432758 C 366.595224 30.005675 367.959807 26.547341 370.595224 24.057758 C 373.241058 21.557758 376.808766 20.245258 381.29835 20.115049 Z M 381.105641 23.682758 C 379.121266 23.682758 377.7046 24.599424 376.86085 26.437966 C 376.022308 28.2713 375.605641 30.698383 375.605641 33.729633 C 375.605641 36.7713 376.011891 39.411925 376.834808 41.661926 C 377.668141 43.906717 379.022308 45.026509 380.897308 45.026509 C 382.912933 45.026509 384.293142 44.021301 385.032725 42.016092 C 385.782725 40.000467 386.157725 37.370259 386.157725 34.130675 C 386.157725 31.089008 385.777517 28.594216 385.011892 26.630675 C 384.251475 24.667133 382.949392 23.682758 381.105641 23.682758 Z M 402.287935 44.083801 L 402.287935 28.193175 L 399.022309 25.859841 L 399.022309 22.833799 L 407.985852 20.161924 L 409.824393 20.609841 L 409.824393 24.224424 C 411.079602 22.969216 412.642102 21.979633 414.501477 21.250466 C 416.36606 20.526508 418.173352 20.161924 419.933769 20.161924 C 422.866061 20.161924 424.923353 21.073383 426.110853 22.896299 C 427.303561 24.708799 427.90252 27.432758 427.90252 31.057758 L 427.90252 44.083801 L 431.272311 44.734842 L 431.272311 48.000468 L 415.86606 48.000468 L 415.86606 44.734842 L 419.324394 44.031717 L 419.324394 32.1463 C 419.324394 30.36505 419.209811 29.036925 418.975436 28.167133 C 418.751477 27.292133 418.298352 26.667133 417.621269 26.307758 C 416.944185 25.943175 415.912935 25.760883 414.527519 25.760883 C 414.100435 25.760883 413.454602 25.885883 412.590019 26.135883 C 411.735852 26.380675 411.162935 26.61505 410.860852 26.849425 L 410.860852 44.031717 L 413.83481 44.734842 L 413.83481 48.000468 L 399.277518 48.000468 L 399.277518 44.734842 Z M 402.287935 44.083801 " stroke="#6a4000" stroke-width="7.182502" stroke-opacity="1" stroke-miterlimit="4"/><path stroke-linecap="butt" transform="matrix(0.75, 0, 0, 0.75, 27.998913, 251.148089)" fill="none" stroke-linejoin="miter" d="M 112.032707 112.646305 L 123.980625 79.453595 L 132.043125 79.453595 L 143.642084 112.69318 L 147.303543 113.687972 L 147.303543 117.000472 L 130.761875 117.000472 L 130.761875 113.687972 L 133.980625 112.583805 L 132.938959 108.875472 L 119.866041 108.875472 L 118.767083 112.490055 L 122.381666 113.625472 L 122.381666 117.000472 L 108.813957 117.000472 L 108.813957 113.625472 Z M 128.428542 93.323387 L 126.6525 86.682762 L 121.246249 104.422346 L 131.647292 104.422346 Z M 152.735835 113.083805 L 152.735835 97.193179 L 149.47021 94.859846 L 149.47021 91.833804 L 158.428544 89.161929 L 160.267085 89.609845 L 160.267085 93.224429 C 161.527502 91.969221 163.084794 90.979637 164.949377 90.25047 C 166.808752 89.526512 168.621253 89.161929 170.376461 89.161929 C 173.313961 89.161929 175.371253 90.073387 176.558753 91.896304 C 177.751461 93.708804 178.345211 96.432763 178.345211 100.057763 L 178.345211 113.083805 L 181.720212 113.734847 L 181.720212 117.000472 L 166.313961 117.000472 L 166.313961 113.734847 L 169.772294 113.031722 L 169.772294 101.146304 C 169.772294 99.365054 169.657711 98.036929 169.423336 97.167138 C 169.199378 96.292138 168.746253 95.667137 168.069169 95.307762 C 167.392086 94.943179 166.360836 94.760887 164.970211 94.760887 C 164.543127 94.760887 163.902502 94.885887 163.037919 95.135887 C 162.183752 95.380679 161.605627 95.615054 161.308752 95.849429 L 161.308752 113.031722 L 164.282711 113.734847 L 164.282711 117.000472 L 149.725418 117.000472 L 149.725418 113.734847 Z M 198.105629 89.161929 C 201.871255 89.161929 204.657713 89.948387 206.470213 91.521304 C 208.287922 93.083804 209.194172 95.615054 209.194172 99.115054 L 209.194172 113.734847 L 212.360839 113.734847 L 212.360839 116.312972 C 211.69938 116.771306 210.782714 117.115056 209.60563 117.339014 C 208.433755 117.573389 207.272297 117.687972 206.121255 117.687972 C 204.902505 117.687972 203.897297 117.453597 203.100421 116.974431 C 202.308755 116.500472 201.866046 115.812972 201.767088 114.922347 C 199.819171 116.766097 197.470213 117.687972 194.730629 117.687972 C 191.688962 117.687972 189.230629 117.005681 187.340004 115.635889 C 185.465004 114.260889 184.522295 112.354639 184.522295 109.91193 C 184.522295 107.734847 185.282712 105.906721 186.798337 104.422346 C 188.31917 102.932763 190.313962 101.823388 192.772296 101.099429 C 195.230629 100.375471 197.845213 100.010888 200.621255 100.010888 L 200.621255 99.708804 C 200.584796 97.531721 200.19938 96.000471 199.459796 95.115054 C 198.715005 94.219221 197.386879 93.771304 195.470213 93.771304 C 194.079588 93.771304 192.621254 93.969221 191.090004 94.365054 C 189.558754 94.755679 188.360837 95.255679 187.501462 95.849429 L 185.866045 92.135887 C 187.053545 91.177554 188.824379 90.443179 191.188962 89.93797 C 193.548337 89.422345 195.855629 89.161929 198.105629 89.161929 Z M 200.621255 103.72443 C 198.475421 103.72443 196.699379 104.151513 195.298338 105.016096 C 193.897296 105.870263 193.194171 107.156722 193.194171 108.875472 C 193.194171 110.229638 193.532712 111.260888 194.209796 111.969222 C 194.886879 112.677555 195.886879 113.031722 197.209796 113.031722 C 198.662921 113.031722 199.798338 112.687972 200.621255 111.995264 Z M 217.063964 113.083805 L 217.063964 83.516095 L 213.787922 82.12547 L 213.787922 78.766095 L 224.199381 77.578595 L 225.621256 78.016095 L 225.621256 112.984847 L 229.845215 113.734847 L 229.845215 117.000472 L 214.183756 117.000472 L 214.183756 113.734847 Z M 233.845215 123.286931 C 234.537924 123.458806 235.126465 123.573389 235.600424 123.641098 C 236.084799 123.703598 236.688965 123.719223 237.412924 123.687973 C 238.897299 123.687973 240.142091 123.068181 241.152507 121.823389 C 242.157716 120.589014 242.907716 118.984847 243.402507 117.000472 L 242.022299 117.000472 L 232.506673 94.906721 L 230.376465 94.266096 L 230.376465 89.964012 L 244.548341 89.964012 L 244.548341 94.266096 L 241.767091 94.859846 L 246.579591 107.78693 L 246.918133 110.266097 L 247.668133 107.78693 L 251.574383 94.812971 L 248.261883 94.266096 L 248.261883 89.964012 L 260.548342 89.964012 L 260.548342 94.266096 L 258.162925 94.760887 C 257.173342 97.234846 255.605633 101.177555 253.4598 106.578597 C 251.313966 111.969222 249.730633 115.891097 248.709799 118.344222 C 247.949383 120.391097 247.204591 122.115056 246.470216 123.516098 C 245.746258 124.922348 244.970216 126.099431 244.147299 127.047348 C 243.256674 128.07339 242.287924 128.839015 241.246257 129.344223 C 240.209799 129.859848 239.011882 130.120265 237.657715 130.120265 C 236.866049 130.120265 236.074382 130.089015 235.272299 130.021306 C 234.48584 129.958806 233.991048 129.859848 233.79834 129.734848 Z M 266.475426 109.031722 L 268.006676 111.703597 C 268.970217 112.66193 269.777509 113.339014 270.438968 113.734847 C 271.100426 114.13068 271.959801 114.328597 273.017093 114.328597 C 274.303551 114.328597 275.287926 114.057764 275.96501 113.516097 C 276.642093 112.969222 276.980635 112.229639 276.980635 111.302555 C 276.949385 110.484847 276.412926 109.740055 275.37126 109.078597 C 274.334801 108.417138 272.772301 107.625472 270.694176 106.698388 C 267.845217 105.375471 265.699384 103.97443 264.246259 102.490055 C 262.798342 101.005679 262.069175 99.156721 262.069175 96.937971 C 262.105634 95.255679 262.694175 93.828596 263.850425 92.656721 C 265.011884 91.479637 266.465009 90.604637 268.215009 90.03172 C 269.965009 89.453595 271.777509 89.161929 273.657718 89.161929 C 275.147301 89.099429 276.866051 89.208804 278.80876 89.490054 C 280.756677 89.766095 282.24626 90.120262 283.267093 90.552554 L 283.267093 97.193179 L 279.011885 97.193179 L 277.668135 94.172346 C 277.209801 93.604637 276.668135 93.141096 276.037926 92.781721 C 275.407718 92.417137 274.761884 92.234846 274.105634 92.234846 C 273.079593 92.234846 272.230634 92.437971 271.553551 92.849429 C 270.876468 93.260887 270.537926 93.797346 270.537926 94.458804 C 270.537926 95.323387 270.787926 96.068179 271.298343 96.698388 C 271.813968 97.318179 272.517093 97.885888 273.402509 98.401513 C 274.298343 98.911929 275.600426 99.562971 277.319176 100.359846 C 279.93376 101.547346 281.892093 102.750471 283.194177 103.97443 C 284.501468 105.19318 285.157719 106.828597 285.157719 108.875472 C 285.157719 111.88068 283.949385 114.083805 281.537927 115.490055 C 279.131676 116.891097 276.02751 117.594222 272.230634 117.594222 C 270.574384 117.594222 268.829592 117.396306 266.991051 117.000472 C 265.162926 116.604639 263.673342 116.078597 262.517092 115.417139 L 262.517092 109.031722 Z M 296.194178 75.005678 C 297.772303 75.005678 298.991053 75.406719 299.845219 76.214011 C 300.704595 77.021303 301.136886 78.130678 301.136886 79.552553 C 301.136886 81.135887 300.548345 82.43797 299.371261 83.443178 C 298.204594 84.453595 296.829594 84.953595 295.251469 84.953595 C 293.860844 84.953595 292.688969 84.526512 291.730636 83.672345 C 290.772302 82.81297 290.293136 81.71922 290.293136 80.396303 C 290.293136 79.40672 290.579594 78.50047 291.162927 77.677553 C 291.741052 76.84422 292.485844 76.193178 293.386886 75.719219 C 294.298344 75.240053 295.235844 75.005678 296.194178 75.005678 Z M 300.303553 89.755679 L 300.303553 113.083805 L 303.761886 113.734847 L 303.761886 117.000472 L 288.511885 117.000472 L 288.511885 113.734847 L 291.730636 113.031722 L 291.730636 97.979638 L 288.657719 94.510887 L 288.657719 92.234846 L 298.225428 89.161929 Z M 311.037929 109.031722 L 312.574387 111.703597 C 313.53272 112.66193 314.340012 113.339014 315.00147 113.734847 C 315.662929 114.13068 316.522304 114.328597 317.579596 114.328597 C 318.871262 114.328597 319.850429 114.057764 320.527512 113.516097 C 321.204596 112.969222 321.543138 112.229639 321.543138 111.302555 C 321.511888 110.484847 320.975429 109.740055 319.938971 109.078597 C 318.897304 108.417138 317.334804 107.625472 315.256679 106.698388 C 312.412929 105.375471 310.261887 103.97443 308.81397 102.490055 C 307.360845 101.005679 306.636887 99.156721 306.636887 96.937971 C 306.668137 95.255679 307.261887 93.828596 308.412928 92.656721 C 309.574387 91.479637 311.027512 90.604637 312.777512 90.03172 C 314.527512 89.453595 316.340012 89.161929 318.220221 89.161929 C 319.709804 89.099429 321.428554 89.208804 323.371263 89.490054 C 325.324388 89.766095 326.808763 90.120262 327.834805 90.552554 L 327.834805 97.193179 L 323.574388 97.193179 L 322.235846 94.172346 C 321.777513 93.604637 321.230638 93.141096 320.600429 92.781721 C 319.975429 92.417137 319.329596 92.234846 318.668137 92.234846 C 317.642096 92.234846 316.793137 92.437971 316.116054 92.849429 C 315.43897 93.260887 315.100429 93.797346 315.100429 94.458804 C 315.100429 95.323387 315.355637 96.068179 315.860846 96.698388 C 316.376471 97.318179 317.079596 97.885888 317.965012 98.401513 C 318.860846 98.911929 320.168137 99.562971 321.881679 100.359846 C 324.496263 101.547346 326.454596 102.750471 327.761888 103.97443 C 329.06918 105.19318 329.720221 106.828597 329.720221 108.875472 C 329.720221 111.88068 328.517096 114.083805 326.105638 115.490055 C 323.694179 116.891097 320.590013 117.594222 316.793137 117.594222 C 315.142095 117.594222 313.397304 117.396306 311.558762 117.000472 C 309.725428 116.604639 308.235845 116.078597 307.084803 115.417139 L 307.084803 109.031722 Z M 311.037929 109.031722 " stroke="#6a4000" stroke-width="7.182502" stroke-opacity="1" stroke-miterlimit="4"/><g fill="#d49a42" fill-opacity="1"><g transform="translate(33.588756, 287.148087)"><g><path d="M 17.203125 -28.40625 C 19.328125 -28.40625 21.640625 -28.085938 24.140625 -27.453125 C 24.140625 -27.453125 24.390625 -27.390625 24.890625 -27.265625 L 24.515625 -20.203125 L 20.71875 -20.203125 L 19.390625 -23.921875 C 19.210938 -24.210938 18.859375 -24.472656 18.328125 -24.703125 C 17.796875 -24.941406 16.847656 -25.0625 15.484375 -25.0625 C 13.972656 -25.0625 12.6875 -24.601562 11.625 -23.6875 C 10.5625 -22.78125 9.753906 -21.546875 9.203125 -19.984375 C 8.660156 -18.421875 8.390625 -16.6875 8.390625 -14.78125 C 8.390625 -12.695312 8.679688 -10.71875 9.265625 -8.84375 C 9.847656 -6.976562 10.703125 -5.46875 11.828125 -4.3125 C 12.953125 -3.164062 14.304688 -2.59375 15.890625 -2.59375 C 17.003906 -2.59375 17.945312 -2.695312 18.71875 -2.90625 C 19.488281 -3.125 19.992188 -3.503906 20.234375 -4.046875 L 21.734375 -7.6875 L 24.890625 -7.6875 L 24.890625 -1.21875 C 24.710938 -1.21875 24.140625 -1.082031 23.171875 -0.8125 C 21.859375 -0.414062 20.613281 -0.0976562 19.4375 0.140625 C 18.257812 0.390625 16.929688 0.515625 15.453125 0.515625 C 12.628906 0.515625 10.140625 -0.0390625 7.984375 -1.15625 C 5.828125 -2.269531 4.160156 -3.859375 2.984375 -5.921875 C 1.804688 -7.992188 1.21875 -10.398438 1.21875 -13.140625 C 1.21875 -15.992188 1.921875 -18.582031 3.328125 -20.90625 C 4.742188 -23.238281 6.671875 -25.070312 9.109375 -26.40625 C 11.554688 -27.738281 14.253906 -28.40625 17.203125 -28.40625 Z M 17.203125 -28.40625 "/></g></g></g><g fill="#d49a42" fill-opacity="1"><g transform="translate(60.327245, 287.148087)"><g><path d="M 4.015625 -2.9375 L 4.015625 -14.859375 L 1.5625 -16.609375 L 1.5625 -18.875 L 8.28125 -20.875 L 9.578125 -20.53125 L 9.578125 -17.015625 C 9.753906 -17.679688 10.132812 -18.3125 10.71875 -18.90625 C 11.300781 -19.5 11.960938 -19.972656 12.703125 -20.328125 C 13.441406 -20.691406 14.132812 -20.875 14.78125 -20.875 C 15.800781 -20.875 16.457031 -20.800781 16.75 -20.65625 L 16.75 -14.9375 C 16.476562 -15.207031 16.015625 -15.414062 15.359375 -15.5625 C 14.703125 -15.707031 14.140625 -15.78125 13.671875 -15.78125 C 12.972656 -15.78125 12.320312 -15.710938 11.71875 -15.578125 C 11.113281 -15.441406 10.6875 -15.285156 10.4375 -15.109375 L 10.4375 -3.078125 L 14.671875 -2.453125 L 14.671875 0 L 1.78125 0 L 1.78125 -2.453125 Z M 4.015625 -2.9375 "/></g></g></g><g fill="#d49a42" fill-opacity="1"><g transform="translate(77.855816, 287.148087)"><g><path d="M 12.484375 -20.90625 C 15.867188 -20.90625 18.453125 -20.023438 20.234375 -18.265625 C 22.023438 -16.515625 22.921875 -14.003906 22.921875 -10.734375 C 22.921875 -8.484375 22.460938 -6.515625 21.546875 -4.828125 C 20.628906 -3.140625 19.347656 -1.835938 17.703125 -0.921875 C 16.054688 -0.00390625 14.140625 0.453125 11.953125 0.453125 C 8.535156 0.453125 5.90625 -0.476562 4.0625 -2.34375 C 2.21875 -4.21875 1.320312 -6.828125 1.375 -10.171875 C 1.445312 -13.492188 2.472656 -16.085938 4.453125 -17.953125 C 6.429688 -19.828125 9.109375 -20.8125 12.484375 -20.90625 Z M 12.328125 -18.234375 C 10.847656 -18.234375 9.789062 -17.546875 9.15625 -16.171875 C 8.519531 -14.796875 8.203125 -12.972656 8.203125 -10.703125 C 8.203125 -8.421875 8.507812 -6.4375 9.125 -4.75 C 9.75 -3.070312 10.769531 -2.234375 12.1875 -2.234375 C 13.695312 -2.234375 14.726562 -2.988281 15.28125 -4.5 C 15.84375 -6.007812 16.125 -7.976562 16.125 -10.40625 C 16.125 -12.675781 15.835938 -14.546875 15.265625 -16.015625 C 14.691406 -17.492188 13.710938 -18.234375 12.328125 -18.234375 Z M 12.328125 -18.234375 "/></g></g></g><g fill="#d49a42" fill-opacity="1"><g transform="translate(102.069006, 287.148087)"><g><path d="M 14.890625 -20.875 C 17.640625 -20.875 19.703125 -19.984375 21.078125 -18.203125 C 22.453125 -16.421875 23.140625 -13.957031 23.140625 -10.8125 C 23.140625 -8.75 22.628906 -6.859375 21.609375 -5.140625 C 20.597656 -3.421875 19.222656 -2.054688 17.484375 -1.046875 C 15.753906 -0.046875 13.851562 0.453125 11.78125 0.453125 C 11.476562 0.453125 11.066406 0.410156 10.546875 0.328125 C 10.023438 0.253906 9.726562 0.21875 9.65625 0.21875 L 9.875 3.1875 L 9.875 6.234375 L 13.734375 6.765625 L 13.734375 9.28125 L 1.109375 9.28125 L 1.109375 6.765625 L 3.484375 6.234375 L 3.484375 -14.859375 L 1.046875 -16.609375 L 1.046875 -18.875 L 7.765625 -20.875 L 9.03125 -20.53125 L 9.03125 -18.203125 C 9.394531 -18.921875 10.191406 -19.546875 11.421875 -20.078125 C 12.648438 -20.609375 13.804688 -20.875 14.890625 -20.875 Z M 12.296875 -17.5625 C 11.847656 -17.5625 11.378906 -17.425781 10.890625 -17.15625 C 10.410156 -16.882812 10.070312 -16.601562 9.875 -16.3125 L 9.875 -4.015625 C 10.050781 -3.585938 10.460938 -3.269531 11.109375 -3.0625 C 11.753906 -2.851562 12.375 -2.75 12.96875 -2.75 C 14.226562 -2.75 15.1875 -3.441406 15.84375 -4.828125 C 16.5 -6.210938 16.828125 -7.859375 16.828125 -9.765625 C 16.828125 -12.015625 16.445312 -13.875 15.6875 -15.34375 C 14.9375 -16.820312 13.804688 -17.5625 12.296875 -17.5625 Z M 12.296875 -17.5625 "/></g></g></g><g fill="#d49a42" fill-opacity="1"><g transform="translate(126.542149, 287.148087)"><g/></g></g><g fill="#d49a42" fill-opacity="1"><g transform="translate(134.86079, 287.148087)"><g><path d="M 4.265625 -3.3125 L 4.265625 -24.40625 L 1.15625 -25.03125 L 1.15625 -28.15625 L 7.65625 -28.15625 C 8.21875 -28.15625 8.722656 -28.164062 9.171875 -28.1875 C 9.617188 -28.21875 10.003906 -28.242188 10.328125 -28.265625 C 11.765625 -28.359375 12.941406 -28.40625 13.859375 -28.40625 C 17.421875 -28.40625 20.128906 -27.769531 21.984375 -26.5 C 23.835938 -25.226562 24.765625 -23.117188 24.765625 -20.171875 C 24.765625 -18.234375 24.296875 -16.570312 23.359375 -15.1875 C 22.421875 -13.800781 21.128906 -12.742188 19.484375 -12.015625 C 17.835938 -11.285156 15.960938 -10.921875 13.859375 -10.921875 C 12.421875 -10.921875 11.351562 -10.929688 10.65625 -10.953125 L 10.65625 -3.3125 L 15.078125 -2.53125 L 15.078125 0 L 1.078125 0 L 1.078125 -2.53125 Z M 10.65625 -14.1875 C 11.226562 -14.0625 12.242188 -14 13.703125 -14 C 15.316406 -14 16.503906 -14.585938 17.265625 -15.765625 C 18.035156 -16.941406 18.421875 -18.519531 18.421875 -20.5 C 18.421875 -22.082031 17.925781 -23.304688 16.9375 -24.171875 C 15.945312 -25.046875 14.660156 -25.484375 13.078125 -25.484375 C 12.578125 -25.484375 12.082031 -25.453125 11.59375 -25.390625 C 11.113281 -25.328125 10.800781 -25.269531 10.65625 -25.21875 Z M 10.65625 -14.1875 "/></g></g></g><g fill="#d49a42" fill-opacity="1"><g transform="translate(159.668169, 287.148087)"><g><path d="M 4.015625 -2.9375 L 4.015625 -14.859375 L 1.5625 -16.609375 L 1.5625 -18.875 L 8.28125 -20.875 L 9.578125 -20.53125 L 9.578125 -17.015625 C 9.753906 -17.679688 10.132812 -18.3125 10.71875 -18.90625 C 11.300781 -19.5 11.960938 -19.972656 12.703125 -20.328125 C 13.441406 -20.691406 14.132812 -20.875 14.78125 -20.875 C 15.800781 -20.875 16.457031 -20.800781 16.75 -20.65625 L 16.75 -14.9375 C 16.476562 -15.207031 16.015625 -15.414062 15.359375 -15.5625 C 14.703125 -15.707031 14.140625 -15.78125 13.671875 -15.78125 C 12.972656 -15.78125 12.320312 -15.710938 11.71875 -15.578125 C 11.113281 -15.441406 10.6875 -15.285156 10.4375 -15.109375 L 10.4375 -3.078125 L 14.671875 -2.453125 L 14.671875 0 L 1.78125 0 L 1.78125 -2.453125 Z M 4.015625 -2.9375 "/></g></g></g><g fill="#d49a42" fill-opacity="1"><g transform="translate(177.19674, 287.148087)"><g><path d="M 12.484375 -20.90625 C 15.867188 -20.90625 18.453125 -20.023438 20.234375 -18.265625 C 22.023438 -16.515625 22.921875 -14.003906 22.921875 -10.734375 C 22.921875 -8.484375 22.460938 -6.515625 21.546875 -4.828125 C 20.628906 -3.140625 19.347656 -1.835938 17.703125 -0.921875 C 16.054688 -0.00390625 14.140625 0.453125 11.953125 0.453125 C 8.535156 0.453125 5.90625 -0.476562 4.0625 -2.34375 C 2.21875 -4.21875 1.320312 -6.828125 1.375 -10.171875 C 1.445312 -13.492188 2.472656 -16.085938 4.453125 -17.953125 C 6.429688 -19.828125 9.109375 -20.8125 12.484375 -20.90625 Z M 12.328125 -18.234375 C 10.847656 -18.234375 9.789062 -17.546875 9.15625 -16.171875 C 8.519531 -14.796875 8.203125 -12.972656 8.203125 -10.703125 C 8.203125 -8.421875 8.507812 -6.4375 9.125 -4.75 C 9.75 -3.070312 10.769531 -2.234375 12.1875 -2.234375 C 13.695312 -2.234375 14.726562 -2.988281 15.28125 -4.5 C 15.84375 -6.007812 16.125 -7.976562 16.125 -10.40625 C 16.125 -12.675781 15.835938 -14.546875 15.265625 -16.015625 C 14.691406 -17.492188 13.710938 -18.234375 12.328125 -18.234375 Z M 12.328125 -18.234375 "/></g></g></g><g fill="#d49a42" fill-opacity="1"><g transform="translate(201.40993, 287.148087)"><g><path d="M 21.734375 -29.078125 L 21.734375 -2.453125 L 24.296875 -2.453125 L 24.296875 -0.515625 C 23.796875 -0.242188 23.070312 -0.00390625 22.125 0.203125 C 21.1875 0.410156 20.078125 0.515625 18.796875 0.515625 C 17.304688 0.515625 16.300781 0.0820312 15.78125 -0.78125 C 15.113281 -0.3125 14.253906 0.0195312 13.203125 0.21875 C 12.148438 0.414062 11.066406 0.515625 9.953125 0.515625 C 8.242188 0.515625 6.734375 0.0546875 5.421875 -0.859375 C 4.109375 -1.773438 3.097656 -3.015625 2.390625 -4.578125 C 1.691406 -6.148438 1.34375 -7.894531 1.34375 -9.8125 C 1.34375 -11.9375 1.875 -13.835938 2.9375 -15.515625 C 4 -17.203125 5.425781 -18.515625 7.21875 -19.453125 C 9.019531 -20.398438 10.992188 -20.875 13.140625 -20.875 C 13.960938 -20.875 14.679688 -20.820312 15.296875 -20.71875 L 15.296875 -25.109375 L 11.296875 -26.140625 L 11.296875 -28.671875 L 20.53125 -29.5625 Z M 12.546875 -18.421875 C 11.585938 -18.421875 10.757812 -18.066406 10.0625 -17.359375 C 9.375 -16.660156 8.859375 -15.753906 8.515625 -14.640625 C 8.179688 -13.523438 8.015625 -12.367188 8.015625 -11.171875 C 7.972656 -9.691406 8.125 -8.28125 8.46875 -6.9375 C 8.8125 -5.601562 9.347656 -4.515625 10.078125 -3.671875 C 10.804688 -2.835938 11.71875 -2.421875 12.8125 -2.421875 C 13.851562 -2.421875 14.679688 -2.539062 15.296875 -2.78125 L 15.296875 -17.796875 C 14.660156 -18.210938 13.742188 -18.421875 12.546875 -18.421875 Z M 12.546875 -18.421875 "/></g></g></g><g fill="#d49a42" fill-opacity="1"><g transform="translate(226.477262, 287.148087)"><g><path d="M 0.96875 -17.015625 L 0.96875 -19.234375 L 7.875 -20.875 L 8.84375 -20.578125 L 8.84375 -7.953125 C 8.84375 -6.265625 9.03125 -5.023438 9.40625 -4.234375 C 9.789062 -3.441406 10.53125 -3.046875 11.625 -3.046875 C 12.21875 -3.046875 12.820312 -3.125 13.4375 -3.28125 C 14.0625 -3.445312 14.535156 -3.675781 14.859375 -3.96875 L 14.859375 -15.453125 L 12.546875 -16.71875 L 12.546875 -19.234375 L 20.125 -20.875 L 21.140625 -20.578125 L 21.140625 -2.453125 L 23.21875 -2.453125 L 23.21875 -0.515625 C 22.789062 -0.222656 22.019531 0.0195312 20.90625 0.21875 C 19.789062 0.414062 18.851562 0.515625 18.09375 0.515625 C 17.320312 0.515625 16.691406 0.347656 16.203125 0.015625 C 15.722656 -0.316406 15.484375 -0.816406 15.484375 -1.484375 L 15.484375 -2.1875 C 14.890625 -1.46875 13.984375 -0.835938 12.765625 -0.296875 C 11.554688 0.242188 10.472656 0.515625 9.515625 0.515625 C 6.960938 0.515625 5.179688 -0.0859375 4.171875 -1.296875 C 3.171875 -2.515625 2.671875 -4.445312 2.671875 -7.09375 L 2.671875 -15.75 Z M 0.96875 -17.015625 "/></g></g></g><g fill="#d49a42" fill-opacity="1"><g transform="translate(250.616192, 287.148087)"><g><path d="M 13.265625 -20.875 C 14.296875 -20.875 15.425781 -20.789062 16.65625 -20.625 C 17.882812 -20.46875 18.769531 -20.238281 19.3125 -19.9375 L 19.3125 -14.1875 L 16 -14.1875 L 14.5625 -17.609375 C 14.0625 -17.898438 13.269531 -18.046875 12.1875 -18.046875 C 10.769531 -18.046875 9.71875 -17.347656 9.03125 -15.953125 C 8.351562 -14.554688 8.015625 -12.804688 8.015625 -10.703125 C 8.015625 -8.398438 8.519531 -6.550781 9.53125 -5.15625 C 10.550781 -3.769531 12.015625 -3.078125 13.921875 -3.078125 C 14.835938 -3.078125 15.78125 -3.1875 16.75 -3.40625 C 17.71875 -3.632812 18.472656 -3.945312 19.015625 -4.34375 L 19.984375 -2.078125 C 19.015625 -1.234375 17.804688 -0.585938 16.359375 -0.140625 C 14.910156 0.296875 13.269531 0.515625 11.4375 0.515625 C 9.382812 0.515625 7.59375 0.0976562 6.0625 -0.734375 C 4.539062 -1.578125 3.378906 -2.765625 2.578125 -4.296875 C 1.773438 -5.835938 1.375 -7.625 1.375 -9.65625 C 1.375 -11.882812 1.875 -13.847656 2.875 -15.546875 C 3.875 -17.242188 5.28125 -18.554688 7.09375 -19.484375 C 8.90625 -20.410156 10.960938 -20.875 13.265625 -20.875 Z M 13.265625 -20.875 "/></g></g></g><g fill="#d49a42" fill-opacity="1"><g transform="translate(271.189967, 287.148087)"><g><path d="M 9.25 -20.28125 L 15.453125 -20.28125 L 15.453125 -17.046875 L 9.515625 -17.046875 L 9.515625 -10.0625 C 9.515625 -8.425781 9.550781 -7.160156 9.625 -6.265625 C 9.695312 -5.378906 9.894531 -4.648438 10.21875 -4.078125 C 10.539062 -3.515625 11.046875 -3.234375 11.734375 -3.234375 C 12.179688 -3.234375 12.742188 -3.300781 13.421875 -3.4375 C 14.109375 -3.570312 14.597656 -3.710938 14.890625 -3.859375 L 15.859375 -1.8125 C 15.117188 -1.070312 14.0625 -0.507812 12.6875 -0.125 C 11.3125 0.257812 9.914062 0.453125 8.5 0.453125 C 7.144531 0.453125 6.085938 0.21875 5.328125 -0.25 C 4.578125 -0.726562 4.046875 -1.445312 3.734375 -2.40625 C 3.421875 -3.375 3.265625 -4.648438 3.265625 -6.234375 L 3.265625 -17.046875 L 0.515625 -17.046875 L 0.515625 -19.09375 C 2.097656 -19.34375 3.265625 -19.835938 4.015625 -20.578125 C 4.460938 -21.023438 4.835938 -21.59375 5.140625 -22.28125 C 5.453125 -22.976562 5.804688 -23.929688 6.203125 -25.140625 L 9.25 -25.140625 Z M 9.25 -20.28125 "/></g></g></g><g fill="#d49a42" fill-opacity="1"><g transform="translate(287.938669, 287.148087)"><g><path d="M 7.203125 -31.5 C 8.390625 -31.5 9.304688 -31.191406 9.953125 -30.578125 C 10.597656 -29.972656 10.921875 -29.140625 10.921875 -28.078125 C 10.921875 -26.890625 10.476562 -25.914062 9.59375 -25.15625 C 8.71875 -24.40625 7.6875 -24.03125 6.5 -24.03125 C 5.457031 -24.03125 4.578125 -24.351562 3.859375 -25 C 3.140625 -25.644531 2.78125 -26.460938 2.78125 -27.453125 C 2.78125 -28.191406 2.992188 -28.867188 3.421875 -29.484375 C 3.859375 -30.109375 4.414062 -30.597656 5.09375 -30.953125 C 5.78125 -31.316406 6.484375 -31.5 7.203125 -31.5 Z M 10.28125 -20.421875 L 10.28125 -2.9375 L 12.890625 -2.453125 L 12.890625 0 L 1.453125 0 L 1.453125 -2.453125 L 3.859375 -2.96875 L 3.859375 -14.265625 L 1.5625 -16.859375 L 1.5625 -18.5625 L 8.734375 -20.875 Z M 10.28125 -20.421875 "/></g></g></g><g fill="#d49a42" fill-opacity="1"><g transform="translate(301.493599, 287.148087)"><g><path d="M 12.484375 -20.90625 C 15.867188 -20.90625 18.453125 -20.023438 20.234375 -18.265625 C 22.023438 -16.515625 22.921875 -14.003906 22.921875 -10.734375 C 22.921875 -8.484375 22.460938 -6.515625 21.546875 -4.828125 C 20.628906 -3.140625 19.347656 -1.835938 17.703125 -0.921875 C 16.054688 -0.00390625 14.140625 0.453125 11.953125 0.453125 C 8.535156 0.453125 5.90625 -0.476562 4.0625 -2.34375 C 2.21875 -4.21875 1.320312 -6.828125 1.375 -10.171875 C 1.445312 -13.492188 2.472656 -16.085938 4.453125 -17.953125 C 6.429688 -19.828125 9.109375 -20.8125 12.484375 -20.90625 Z M 12.328125 -18.234375 C 10.847656 -18.234375 9.789062 -17.546875 9.15625 -16.171875 C 8.519531 -14.796875 8.203125 -12.972656 8.203125 -10.703125 C 8.203125 -8.421875 8.507812 -6.4375 9.125 -4.75 C 9.75 -3.070312 10.769531 -2.234375 12.1875 -2.234375 C 13.695312 -2.234375 14.726562 -2.988281 15.28125 -4.5 C 15.84375 -6.007812 16.125 -7.976562 16.125 -10.40625 C 16.125 -12.675781 15.835938 -14.546875 15.265625 -16.015625 C 14.691406 -17.492188 13.710938 -18.234375 12.328125 -18.234375 Z M 12.328125 -18.234375 "/></g></g></g><g fill="#d49a42" fill-opacity="1"><g transform="translate(325.706779, 287.148087)"><g><path d="M 4.015625 -2.9375 L 4.015625 -14.859375 L 1.5625 -16.609375 L 1.5625 -18.875 L 8.28125 -20.875 L 9.65625 -20.53125 L 9.65625 -17.828125 C 10.59375 -18.765625 11.757812 -19.503906 13.15625 -20.046875 C 14.5625 -20.597656 15.921875 -20.875 17.234375 -20.875 C 19.429688 -20.875 20.976562 -20.191406 21.875 -18.828125 C 22.769531 -17.460938 23.21875 -15.421875 23.21875 -12.703125 L 23.21875 -2.9375 L 25.734375 -2.453125 L 25.734375 0 L 14.1875 0 L 14.1875 -2.453125 L 16.78125 -2.96875 L 16.78125 -11.890625 C 16.78125 -13.222656 16.691406 -14.21875 16.515625 -14.875 C 16.347656 -15.53125 16.007812 -15.992188 15.5 -16.265625 C 15 -16.535156 14.226562 -16.671875 13.1875 -16.671875 C 12.863281 -16.671875 12.378906 -16.578125 11.734375 -16.390625 C 11.085938 -16.210938 10.65625 -16.035156 10.4375 -15.859375 L 10.4375 -2.96875 L 12.671875 -2.453125 L 12.671875 0 L 1.75 0 L 1.75 -2.453125 Z M 4.015625 -2.9375 "/></g></g></g><g fill="#d49a42" fill-opacity="1"><g transform="translate(109.53797, 338.898083)"><g><path d="M 2.484375 -3.265625 L 11.4375 -28.15625 L 17.5 -28.15625 L 26.1875 -3.234375 L 28.9375 -2.484375 L 28.9375 0 L 16.53125 0 L 16.53125 -2.484375 L 18.9375 -3.3125 L 18.15625 -6.09375 L 8.359375 -6.09375 L 7.546875 -3.375 L 10.25 -2.53125 L 10.25 0 L 0.078125 0 L 0.078125 -2.53125 Z M 14.78125 -17.75 L 13.4375 -22.734375 L 9.390625 -9.4375 L 17.203125 -9.4375 Z M 14.78125 -17.75 "/></g></g></g><g fill="#d49a42" fill-opacity="1"><g transform="translate(138.541805, 338.898083)"><g><path d="M 4.015625 -2.9375 L 4.015625 -14.859375 L 1.5625 -16.609375 L 1.5625 -18.875 L 8.28125 -20.875 L 9.65625 -20.53125 L 9.65625 -17.828125 C 10.59375 -18.765625 11.757812 -19.503906 13.15625 -20.046875 C 14.5625 -20.597656 15.921875 -20.875 17.234375 -20.875 C 19.429688 -20.875 20.976562 -20.191406 21.875 -18.828125 C 22.769531 -17.460938 23.21875 -15.421875 23.21875 -12.703125 L 23.21875 -2.9375 L 25.734375 -2.453125 L 25.734375 0 L 14.1875 0 L 14.1875 -2.453125 L 16.78125 -2.96875 L 16.78125 -11.890625 C 16.78125 -13.222656 16.691406 -14.21875 16.515625 -14.875 C 16.347656 -15.53125 16.007812 -15.992188 15.5 -16.265625 C 15 -16.535156 14.226562 -16.671875 13.1875 -16.671875 C 12.863281 -16.671875 12.378906 -16.578125 11.734375 -16.390625 C 11.085938 -16.210938 10.65625 -16.035156 10.4375 -15.859375 L 10.4375 -2.96875 L 12.671875 -2.453125 L 12.671875 0 L 1.75 0 L 1.75 -2.453125 Z M 4.015625 -2.9375 "/></g></g></g><g fill="#d49a42" fill-opacity="1"><g transform="translate(165.13175, 338.898083)"><g><path d="M 11.4375 -20.875 C 14.257812 -20.875 16.351562 -20.285156 17.71875 -19.109375 C 19.082031 -17.929688 19.765625 -16.03125 19.765625 -13.40625 L 19.765625 -2.453125 L 22.140625 -2.453125 L 22.140625 -0.515625 C 21.640625 -0.171875 20.945312 0.0820312 20.0625 0.25 C 19.1875 0.425781 18.316406 0.515625 17.453125 0.515625 C 16.535156 0.515625 15.78125 0.335938 15.1875 -0.015625 C 14.59375 -0.378906 14.257812 -0.894531 14.1875 -1.5625 C 12.726562 -0.175781 10.96875 0.515625 8.90625 0.515625 C 6.632812 0.515625 4.789062 0.00390625 3.375 -1.015625 C 1.96875 -2.046875 1.265625 -3.476562 1.265625 -5.3125 C 1.265625 -6.945312 1.832031 -8.320312 2.96875 -9.4375 C 4.113281 -10.550781 5.609375 -11.378906 7.453125 -11.921875 C 9.296875 -12.460938 11.253906 -12.734375 13.328125 -12.734375 L 13.328125 -12.96875 C 13.304688 -14.59375 13.015625 -15.738281 12.453125 -16.40625 C 11.898438 -17.082031 10.90625 -17.421875 9.46875 -17.421875 C 8.425781 -17.421875 7.328125 -17.269531 6.171875 -16.96875 C 5.023438 -16.675781 4.128906 -16.304688 3.484375 -15.859375 L 2.265625 -18.640625 C 3.160156 -19.359375 4.488281 -19.910156 6.25 -20.296875 C 8.019531 -20.679688 9.75 -20.875 11.4375 -20.875 Z M 13.328125 -9.953125 C 11.722656 -9.953125 10.394531 -9.628906 9.34375 -8.984375 C 8.289062 -8.335938 7.765625 -7.375 7.765625 -6.09375 C 7.765625 -5.070312 8.015625 -4.296875 8.515625 -3.765625 C 9.023438 -3.234375 9.773438 -2.96875 10.765625 -2.96875 C 11.859375 -2.96875 12.710938 -3.226562 13.328125 -3.75 Z M 13.328125 -9.953125 "/></g></g></g><g fill="#d49a42" fill-opacity="1"><g transform="translate(187.376682, 338.898083)"><g><path d="M 3.421875 -2.9375 L 3.421875 -25.109375 L 0.96875 -26.140625 L 0.96875 -28.671875 L 8.765625 -29.5625 L 9.84375 -29.234375 L 9.84375 -3.015625 L 13 -2.453125 L 13 0 L 1.265625 0 L 1.265625 -2.453125 Z M 3.421875 -2.9375 "/></g></g></g><g fill="#d49a42" fill-opacity="1"><g transform="translate(200.708785, 338.898083)"><g><path d="M 2.671875 4.71875 C 3.191406 4.84375 3.628906 4.925781 3.984375 4.96875 C 4.347656 5.019531 4.800781 5.035156 5.34375 5.015625 C 6.457031 5.015625 7.390625 4.550781 8.140625 3.625 C 8.898438 2.695312 9.46875 1.488281 9.84375 0 L 8.796875 0 L 1.671875 -16.5625 L 0.078125 -17.046875 L 0.078125 -20.28125 L 10.703125 -20.28125 L 10.703125 -17.046875 L 8.609375 -16.609375 L 12.21875 -6.90625 L 12.484375 -5.046875 L 13.03125 -6.90625 L 15.96875 -16.640625 L 13.484375 -17.046875 L 13.484375 -20.28125 L 22.6875 -20.28125 L 22.6875 -17.046875 L 20.90625 -16.671875 C 20.164062 -14.816406 18.988281 -11.863281 17.375 -7.8125 C 15.769531 -3.769531 14.582031 -0.832031 13.8125 1 C 13.25 2.539062 12.691406 3.835938 12.140625 4.890625 C 11.597656 5.941406 11.019531 6.828125 10.40625 7.546875 C 9.726562 8.304688 9 8.878906 8.21875 9.265625 C 7.445312 9.648438 6.550781 9.84375 5.53125 9.84375 C 4.9375 9.84375 4.34375 9.816406 3.75 9.765625 C 3.15625 9.710938 2.785156 9.640625 2.640625 9.546875 Z M 2.671875 4.71875 "/></g></g></g><g fill="#d49a42" fill-opacity="1"><g transform="translate(223.065138, 338.898083)"><g><path d="M 4.796875 -5.984375 L 5.9375 -3.96875 C 6.65625 -3.25 7.257812 -2.738281 7.75 -2.4375 C 8.25 -2.144531 8.894531 -2 9.6875 -2 C 10.65625 -2 11.394531 -2.203125 11.90625 -2.609375 C 12.414062 -3.023438 12.671875 -3.578125 12.671875 -4.265625 C 12.640625 -4.890625 12.234375 -5.445312 11.453125 -5.9375 C 10.671875 -6.4375 9.503906 -7.03125 7.953125 -7.71875 C 5.816406 -8.707031 4.203125 -9.757812 3.109375 -10.875 C 2.023438 -11.988281 1.484375 -13.378906 1.484375 -15.046875 C 1.503906 -16.304688 1.945312 -17.375 2.8125 -18.25 C 3.6875 -19.132812 4.78125 -19.789062 6.09375 -20.21875 C 7.40625 -20.65625 8.765625 -20.875 10.171875 -20.875 C 11.285156 -20.925781 12.570312 -20.84375 14.03125 -20.625 C 15.5 -20.414062 16.613281 -20.148438 17.375 -19.828125 L 17.375 -14.859375 L 14.1875 -14.859375 L 13.1875 -17.125 C 12.84375 -17.539062 12.429688 -17.882812 11.953125 -18.15625 C 11.484375 -18.425781 11.003906 -18.5625 10.515625 -18.5625 C 9.742188 -18.5625 9.101562 -18.40625 8.59375 -18.09375 C 8.09375 -17.789062 7.84375 -17.394531 7.84375 -16.90625 C 7.84375 -16.257812 8.03125 -15.695312 8.40625 -15.21875 C 8.789062 -14.75 9.316406 -14.320312 9.984375 -13.9375 C 10.660156 -13.5625 11.640625 -13.078125 12.921875 -12.484375 C 14.878906 -11.585938 16.347656 -10.679688 17.328125 -9.765625 C 18.304688 -8.847656 18.796875 -7.625 18.796875 -6.09375 C 18.796875 -3.84375 17.890625 -2.1875 16.078125 -1.125 C 14.273438 -0.0703125 11.945312 0.453125 9.09375 0.453125 C 7.863281 0.453125 6.5625 0.300781 5.1875 0 C 3.8125 -0.300781 2.6875 -0.695312 1.8125 -1.1875 L 1.8125 -5.984375 Z M 4.796875 -5.984375 "/></g></g></g><g fill="#d49a42" fill-opacity="1"><g transform="translate(242.933316, 338.898083)"><g><path d="M 7.203125 -31.5 C 8.390625 -31.5 9.304688 -31.191406 9.953125 -30.578125 C 10.597656 -29.972656 10.921875 -29.140625 10.921875 -28.078125 C 10.921875 -26.890625 10.476562 -25.914062 9.59375 -25.15625 C 8.71875 -24.40625 7.6875 -24.03125 6.5 -24.03125 C 5.457031 -24.03125 4.578125 -24.351562 3.859375 -25 C 3.140625 -25.644531 2.78125 -26.460938 2.78125 -27.453125 C 2.78125 -28.191406 2.992188 -28.867188 3.421875 -29.484375 C 3.859375 -30.109375 4.414062 -30.597656 5.09375 -30.953125 C 5.78125 -31.316406 6.484375 -31.5 7.203125 -31.5 Z M 10.28125 -20.421875 L 10.28125 -2.9375 L 12.890625 -2.453125 L 12.890625 0 L 1.453125 0 L 1.453125 -2.453125 L 3.859375 -2.96875 L 3.859375 -14.265625 L 1.5625 -16.859375 L 1.5625 -18.5625 L 8.734375 -20.875 Z M 10.28125 -20.421875 "/></g></g></g><g fill="#d49a42" fill-opacity="1"><g transform="translate(256.488246, 338.898083)"><g><path d="M 4.796875 -5.984375 L 5.9375 -3.96875 C 6.65625 -3.25 7.257812 -2.738281 7.75 -2.4375 C 8.25 -2.144531 8.894531 -2 9.6875 -2 C 10.65625 -2 11.394531 -2.203125 11.90625 -2.609375 C 12.414062 -3.023438 12.671875 -3.578125 12.671875 -4.265625 C 12.640625 -4.890625 12.234375 -5.445312 11.453125 -5.9375 C 10.671875 -6.4375 9.503906 -7.03125 7.953125 -7.71875 C 5.816406 -8.707031 4.203125 -9.757812 3.109375 -10.875 C 2.023438 -11.988281 1.484375 -13.378906 1.484375 -15.046875 C 1.503906 -16.304688 1.945312 -17.375 2.8125 -18.25 C 3.6875 -19.132812 4.78125 -19.789062 6.09375 -20.21875 C 7.40625 -20.65625 8.765625 -20.875 10.171875 -20.875 C 11.285156 -20.925781 12.570312 -20.84375 14.03125 -20.625 C 15.5 -20.414062 16.613281 -20.148438 17.375 -19.828125 L 17.375 -14.859375 L 14.1875 -14.859375 L 13.1875 -17.125 C 12.84375 -17.539062 12.429688 -17.882812 11.953125 -18.15625 C 11.484375 -18.425781 11.003906 -18.5625 10.515625 -18.5625 C 9.742188 -18.5625 9.101562 -18.40625 8.59375 -18.09375 C 8.09375 -17.789062 7.84375 -17.394531 7.84375 -16.90625 C 7.84375 -16.257812 8.03125 -15.695312 8.40625 -15.21875 C 8.789062 -14.75 9.316406 -14.320312 9.984375 -13.9375 C 10.660156 -13.5625 11.640625 -13.078125 12.921875 -12.484375 C 14.878906 -11.585938 16.347656 -10.679688 17.328125 -9.765625 C 18.304688 -8.847656 18.796875 -7.625 18.796875 -6.09375 C 18.796875 -3.84375 17.890625 -2.1875 16.078125 -1.125 C 14.273438 -0.0703125 11.945312 0.453125 9.09375 0.453125 C 7.863281 0.453125 6.5625 0.300781 5.1875 0 C 3.8125 -0.300781 2.6875 -0.695312 1.8125 -1.1875 L 1.8125 -5.984375 Z M 4.796875 -5.984375 "/></g></g></g></svg>